<?xml version="1.0" encoding="iso-8859-1"?>
<!-- Generator: Adobe Illustrator 16.0.0, SVG Export Plug-In . SVG Version: 6.00 Build 0)  -->
<!DOCTYPE svg PUBLIC "-//W3C//DTD SVG 1.1//EN" "http://www.w3.org/Graphics/SVG/1.1/DTD/svg11.dtd">
<svg version="1.1" id="Capa_1" xmlns="http://www.w3.org/2000/svg" xmlns:xlink="http://www.w3.org/1999/xlink" x="0px" y="0px"
	 width="52.321px" height="52.32px" viewBox="0 0 52.321 52.32" style="enable-background:new 0 0 52.321 52.32;"
	 xml:space="preserve">
<g>
	<g>
		<path d="M45.66,27.982c1.104,0,2-0.896,2-2V5.522C47.66,2.476,45.18,0,42.137,0H23.345c-0.36,0-3.594,0.063-5.815,2.287
			L5.247,14.569c-0.375,0.375-0.586,0.885-0.586,1.414v30.816c0,3.045,2.479,5.521,5.522,5.521h31.955
			c3.045,0,5.521-2.478,5.521-5.521V34.566c0-1.104-0.896-2-2-2h-0.166v-4.584H45.66L45.66,27.982z M43.66,23.983h-0.168
			c-1.104,0-2,0.896-2,2v8.583c0,1.104,0.896,2,2,2h0.168v10.231c0,0.84-0.687,1.521-1.522,1.521H10.183
			c-0.84,0-1.522-0.684-1.522-1.521V16.811L20.357,5.115c0.901-0.901,2.467-1.11,2.991-1.115h18.791c0.84,0,1.521,0.684,1.521,1.522
			V23.983L43.66,23.983z"/>
		<path d="M40,5.233h-1.992c-0.862,0-1.565,0.703-1.565,1.567v6.24c0,0.863,0.703,1.566,1.565,1.566H40
			c0.862,0,1.565-0.703,1.565-1.566V6.8C41.567,5.936,40.864,5.233,40,5.233z"/>
		<path d="M31.466,14.608h1.99c0.862,0,1.563-0.703,1.563-1.566v-6.24c0-0.864-0.701-1.567-1.563-1.567h-1.99
			c-0.864,0-1.567,0.703-1.567,1.567v6.24C29.899,13.905,30.602,14.608,31.466,14.608z"/>
		<path d="M24.923,14.608h1.993c0.863,0,1.564-0.703,1.564-1.566v-6.24c0-0.864-0.701-1.567-1.564-1.567h-1.993
			c-0.863,0-1.566,0.703-1.566,1.567v6.24C23.356,13.905,24.06,14.608,24.923,14.608z"/>
		<path d="M18.382,18.983h1.992c0.863,0,1.565-0.703,1.565-1.566v-6.24c0-0.864-0.702-1.567-1.565-1.567h-1.992
			c-0.863,0-1.566,0.703-1.566,1.567v6.24C16.815,18.28,17.519,18.983,18.382,18.983z"/>
		<path d="M38.28,30.357H14.039c-1.416,0-2.566,1.151-2.566,2.567V44.54c0,1.416,1.15,2.565,2.566,2.565H38.28
			c1.416,0,2.566-1.149,2.566-2.565V32.926C40.848,31.51,39.696,30.357,38.28,30.357z M36.848,43.107H15.472v-8.75h21.375v8.75
			H36.848z"/>
	</g>
</g>
<g>
</g>
<g>
</g>
<g>
</g>
<g>
</g>
<g>
</g>
<g>
</g>
<g>
</g>
<g>
</g>
<g>
</g>
<g>
</g>
<g>
</g>
<g>
</g>
<g>
</g>
<g>
</g>
<g>
</g>
</svg>
